<?xml version="1.0" encoding="UTF-8" standalone="no" ?>
<!DOCTYPE svg PUBLIC "-//W3C//DTD SVG 1.1//EN" "http://www.w3.org/Graphics/SVG/1.1/DTD/svg11.dtd">
<svg xmlns="http://www.w3.org/2000/svg" xmlns:xlink="http://www.w3.org/1999/xlink" version="1.1" width="297" height="187" viewBox="0 0 297 187" xml:space="preserve">
<desc>Created with Fabric.js 3.6.6</desc>
<defs>
</defs>
<g transform="matrix(1 0 0 1 149 94)"  >
<g style=""   >
		<g transform="matrix(1 0 0 1 0 0)" id="5894"  >
<rect style="stroke: none; stroke-width: 1; stroke-dasharray: none; stroke-linecap: butt; stroke-dashoffset: 0; stroke-linejoin: miter; stroke-miterlimit: 4; fill: rgb(255,255,255); fill-rule: nonzero; opacity: 1; visibility: hidden;" vector-effect="non-scaling-stroke"  x="-540" y="-540" rx="0" ry="0" width="1080" height="1080" />
</g>
		<g transform="matrix(1 0 0 1 134.06 -3.69)"  >
<path style="stroke: none; stroke-width: 1; stroke-dasharray: none; stroke-linecap: butt; stroke-dashoffset: 0; stroke-linejoin: miter; stroke-miterlimit: 4; fill: rgb(129,140,248); fill-rule: nonzero; opacity: 1;" vector-effect="non-scaling-stroke"  transform=" translate(-430.41, -143.89)" d="M 431.870789 154.210693 C 431.857452 180.819229 431.857452 206.94696 431.857452 233.462952 C 426.453827 233.462952 421.416321 233.462952 416.106201 233.462952 C 416.106201 173.765945 416.106201 114.206467 416.106201 54.320564 C 425.550323 54.320564 434.95462 54.320564 444.683899 54.320564 C 444.683899 59.35091 444.683899 64.40345 444.683899 69.956512 C 440.539795 69.956512 436.459747 69.956512 432.127655 69.956512 C 432.127655 92.022453 432.127655 113.596451 432.127655 135.695282 C 436.270508 135.695282 440.34845 135.695282 444.710449 135.695282 C 444.710449 141.28598 444.710449 146.356964 444.710449 152.006668 C 441.54187 152.006668 438.419861 151.85144 435.327332 152.085571 C 434.144897 152.175095 433.029877 153.155472 431.870789 154.210693 z" stroke-linecap="round" />
</g>
		<g transform="matrix(1 0 0 1 -32.04 2.73)"  >
<path style="stroke: none; stroke-width: 0; stroke-dasharray: none; stroke-linecap: butt; stroke-dashoffset: 0; stroke-linejoin: miter; stroke-miterlimit: 4; fill: rgb(235,58,92); fill-rule: nonzero; opacity: 1;" vector-effect="non-scaling-stroke"  transform=" translate(-162.81, -143.92)" d="M 183.622604 74.000504 C 183.622589 83.832794 183.397049 93.171967 183.675568 102.496078 C 184.09761 116.62487 178.019272 128.189865 169.993561 139.0923 C 169.304901 140.027817 168.647583 140.988739 168.023361 141.968231 C 167.76004 142.381409 167.620346 142.873352 167.354736 143.491852 C 168.19577 144.636383 169.033676 145.856293 169.951233 147.013046 C 180.091873 159.797195 184.78331 174.108475 183.77594 190.62001 C 183.006104 203.23848 183.62291 215.941544 183.62291 228.606979 C 183.62291 230.234756 183.62291 231.862549 183.62291 233.641891 C 180.978958 233.641891 178.879715 233.641891 176.124832 233.641891 C 176.124832 231.642212 176.124832 229.867752 176.124832 228.093292 C 176.124832 214.09465 175.590729 200.06987 176.274078 186.104675 C 176.966293 171.958252 171.160645 160.733566 162.713791 149.877579 C 154.661835 160.685974 148.336563 171.609848 148.883804 185.713394 C 149.496475 201.503433 149.024475 217.335556 149.024475 233.510986 C 146.53566 233.510986 144.334274 233.510986 142.1418 233.510986 C 142.1418 213.757385 141.666718 194.106064 142.340942 174.494263 C 142.681351 164.592651 148.590927 156.329193 154.491867 148.669907 C 157.614288 144.617035 157.909851 141.747864 154.669998 137.606628 C 148.920456 130.257492 143.819992 122.334053 142.579285 112.792702 C 141.87439 107.371658 141.803711 101.846069 141.762161 96.365173 C 141.656174 82.38446 141.726852 68.402412 141.726852 54.200089 C 144.196243 54.200089 146.307419 54.200089 149.024475 54.200089 C 149.024475 57.842709 149.02449 61.454861 149.02449 65.067017 C 149.02449 76.232597 149.521973 87.425934 148.901215 98.556892 C 148.086853 113.159569 153.830994 125.035316 162.731247 136.429321 C 169.83696 126.683403 176.246765 116.999321 176.151215 104.408867 C 176.03743 89.411194 176.124695 74.41198 176.124847 59.413437 C 176.124863 57.783634 176.124847 56.153835 176.124847 54.25293 C 178.668884 54.25293 180.76564 54.25293 183.622787 54.25293 C 183.622787 60.654968 183.622787 67.077805 183.622604 74.000504 z" stroke-linecap="round" />
</g>
		<g transform="matrix(1 0 0 1 61.55 30.7)"  >
<path style="stroke: none; stroke-width: 1; stroke-dasharray: none; stroke-linecap: butt; stroke-dashoffset: 0; stroke-linejoin: miter; stroke-miterlimit: 4; fill: rgb(129,140,248); fill-rule: nonzero; opacity: 1;" vector-effect="non-scaling-stroke"  transform=" translate(-300.9, -171.4)" d="M 297.359802 193.988983 C 314.980164 194.810455 324.801849 185.52449 324.83078 168.413254 C 324.850769 156.593002 324.834625 144.77269 324.834625 132.548615 C 330.12204 132.548615 335.156799 132.548615 340.857056 132.548615 C 340.857056 137.560455 340.927216 142.500458 340.842041 147.43779 C 340.678467 156.91716 340.835999 166.425674 340.128998 175.867325 C 338.511169 197.473465 317.597229 214.94809 291.682831 209.170486 C 273.679291 205.156601 262.218018 191.909332 261.27182 173.814941 C 260.56012 160.204315 261.131165 146.526611 261.131165 132.511246 C 266.298187 132.511246 271.34967 132.511246 277.008606 132.511246 C 277.008606 144.505951 276.978241 156.443039 277.033417 168.37973 C 277.044891 170.863846 277.106445 173.401138 277.601898 175.820312 C 279.661713 185.877151 286.355682 192.080826 297.359802 193.988983 z" stroke-linecap="round" />
</g>
		<g transform="matrix(1 0 0 1 -127.44 3.44)"  >
<path style="stroke: none; stroke-width: 1; stroke-dasharray: none; stroke-linecap: butt; stroke-dashoffset: 0; stroke-linejoin: miter; stroke-miterlimit: 4; fill: rgb(235,57,91); fill-rule: nonzero; opacity: 1;" vector-effect="non-scaling-stroke"  transform=" translate(-66.9, -144.14)" d="M 51.063198 113.205536 C 49.348129 93.385742 47.678177 74.027557 45.977348 54.311451 C 48.511219 54.311451 50.729805 54.311451 53.409237 54.311451 C 57.66843 103.830338 61.922398 153.288437 66.176369 202.746536 C 66.589104 202.769211 67.001839 202.791885 67.414574 202.81456 C 71.728455 153.423203 76.042343 104.031845 80.383636 54.326622 C 82.923225 54.326622 85.131683 54.326622 87.830902 54.326622 C 82.641365 114.194923 77.465767 173.902344 72.299278 233.5047 C 61.498508 234.567474 61.59351 234.559326 60.7295 224.489395 C 57.559669 187.545441 54.321041 150.607407 51.063198 113.205536 z" stroke-linecap="round" />
</g>
		<g transform="matrix(1 0 0 1 -80.07 3.15)"  >
<path style="stroke: none; stroke-width: 1; stroke-dasharray: none; stroke-linecap: butt; stroke-dashoffset: 0; stroke-linejoin: miter; stroke-miterlimit: 4; fill: rgb(236,69,101); fill-rule: nonzero; opacity: 1;" vector-effect="non-scaling-stroke"  transform=" translate(-114.28, -143.85)" d="M 108.676224 99.000069 C 108.704063 112.496979 108.730057 125.493889 108.772255 138.490738 C 108.773254 138.799545 108.955688 139.107758 109.209801 139.909241 C 114.796524 139.909241 120.552872 139.909241 126.675003 139.909241 C 126.675003 142.615265 126.675003 144.842758 126.675003 147.597351 C 120.93483 147.597351 115.173225 147.597351 109.049408 147.597351 C 109.049408 173.984421 109.049408 199.852737 109.049408 226.262344 C 114.99646 226.262344 120.753967 226.262344 126.770187 226.262344 C 126.770187 228.89386 126.770187 230.994385 126.770187 233.508942 C 118.599899 233.508942 110.375725 233.508942 101.734604 233.508942 C 101.734604 173.859985 101.734604 114.149704 101.734604 54.193756 C 110.119659 54.193756 118.362762 54.193756 126.82814 54.193756 C 126.82814 56.530148 126.82814 58.632481 126.82814 61.216816 C 120.979805 61.216816 115.21991 61.216816 108.676399 61.216816 C 108.676399 73.95517 108.676399 86.227615 108.676224 99.000069 z" stroke-linecap="round" />
</g>
		<g transform="matrix(1 0 0 1 29.88 -19.72)"  >
<path style="stroke: none; stroke-width: 1; stroke-dasharray: none; stroke-linecap: butt; stroke-dashoffset: 0; stroke-linejoin: miter; stroke-miterlimit: 4; fill: rgb(129,140,248); fill-rule: nonzero; opacity: 1;" vector-effect="non-scaling-stroke"  transform=" translate(-269.23, -120)" d="M 277.043823 118.061508 C 277.043823 121.507095 277.043823 124.471222 277.043823 127.698425 C 271.695404 127.698425 266.756134 127.698425 261.407623 127.698425 C 261.407623 122.787811 261.407623 117.730156 261.407623 112.300781 C 266.302338 112.300781 271.353424 112.300781 277.043793 112.300781 C 277.043793 114.045357 277.043793 115.812698 277.043823 118.061508 z" stroke-linecap="round" />
</g>
		<g transform="matrix(1 0 0 1 93.34 -20.78)"  >
<path style="stroke: none; stroke-width: 1; stroke-dasharray: none; stroke-linecap: butt; stroke-dashoffset: 0; stroke-linejoin: miter; stroke-miterlimit: 4; fill: rgb(129,140,248); fill-rule: nonzero; opacity: 1;" vector-effect="non-scaling-stroke"  transform=" translate(-332.69, -119.91)" d="M 324.788208 121.938766 C 324.788116 118.489342 324.788116 115.523827 324.788116 112.249069 C 330.206879 112.249069 335.254974 112.249069 340.584412 112.249069 C 340.584412 117.326241 340.584412 122.249214 340.584412 127.579247 C 335.607758 127.579247 330.566345 127.579247 324.788269 127.579247 C 324.788269 125.91861 324.788269 124.170647 324.788208 121.938766 z" stroke-linecap="round" />
</g>
		<g transform="matrix(1 0 0 1 29.79 -49.18)"  >
<path style="stroke: none; stroke-width: 1; stroke-dasharray: none; stroke-linecap: butt; stroke-dashoffset: 0; stroke-linejoin: miter; stroke-miterlimit: 4; fill: rgb(129,140,248); fill-opacity: 0.6; fill-rule: nonzero; opacity: 1;" vector-effect="non-scaling-stroke"  transform=" translate(-269.13, -91.52)" d="M 269.847473 101.92955 C 268.658295 103.283592 267.670685 104.329887 266.683044 105.376183 C 266.339844 105.137886 265.996613 104.89959 265.653412 104.661293 C 267.293671 102.041359 268.933929 99.421417 270.917725 96.252747 C 267.913086 96.252747 265.241577 96.252747 261.207733 96.252747 C 266.520966 89.402115 271.072601 83.533447 275.624237 77.66478 C 276.100281 78.007309 276.576294 78.349838 277.052338 78.692368 C 273.702148 83.333389 270.35199 87.974411 266.634949 93.12368 C 269.862518 93.428116 272.369263 93.664558 275.534027 93.963066 C 273.447113 96.877045 271.748077 99.249428 269.847473 101.92955 z" stroke-linecap="round" />
</g>
		<g transform="matrix(1 0 0 1 93.61 -51.65)"  >
<path style="stroke: none; stroke-width: 1; stroke-dasharray: none; stroke-linecap: butt; stroke-dashoffset: 0; stroke-linejoin: miter; stroke-miterlimit: 4; fill: rgb(129,140,248); fill-opacity: 0.6; fill-rule: nonzero; opacity: 1;" vector-effect="non-scaling-stroke"  transform=" translate(-332.96, -89.05)" d="M 325.897278 95.820595 C 329.747314 89.596672 333.972992 83.465752 338.198669 77.334831 C 338.806244 77.778694 339.413788 78.222557 340.021332 78.66642 C 336.594513 83.254684 333.167694 87.842941 329.117432 93.265923 C 332.627014 93.471642 335.014404 93.61158 338.637115 93.823929 C 336.298615 96.352287 334.587341 98.202507 332.213531 100.769066 C 332.837189 98.504951 333.155334 97.350021 333.550995 95.913597 C 330.90213 95.913597 328.587524 95.913597 325.897278 95.820595 z" stroke-linecap="round" />
</g>
</g>
</g>
</svg>